# xmcd
#
# Track frame offsets: 
#        150
#        23184
#        38411
#        51473
#        67382
#        82623
#        97486
#        113662
#        120238
#        134609
#        154181
#
# Disc length: 2164 seconds
#
# Revision: 0
# Processed by: cddbd v1.5.2PL0 Copyright (c) Steve Scherf et al.
# Submitted via: ExactAudioCopyFreeDBPlugin 1.0
#
DISCID=9208720b
DTITLE=Kaarle Viikate and Marko Haavisto - Laulu tuohikonteista
DYEAR=2015
DGENRE=Country
TTITLE0=Laulu tuohikorteista
TTITLE1=Iltaveljes
TTITLE2=Miss‰ olet, Annina?
TTITLE3=Revontulimekko
TTITLE4=Kivi itkee vihre‰‰
TTITLE5=Kuokkavieras-valssi
TTITLE6=Ensimm‰inen
TTITLE7=Apea alkusoitto
TTITLE8=Kuningatar
TTITLE9=Alla ajopuun
TTITLE10=Yhden solmun kravatti
EXTD=
EXTT0=
EXTT1=
EXTT2=
EXTT3=
EXTT4=
EXTT5=
EXTT6=
EXTT7=
EXTT8=
EXTT9=
EXTT10=
PLAYORDER=
